<?xml version="1.0" encoding="UTF-8"?>
<svg id="Capa_2" data-name="Capa 2" xmlns="http://www.w3.org/2000/svg" viewBox="0 0 273.01 94.49">
  <defs>
    <style>
      .cls-1 {
        fill: #ff9500;
      }

      .cls-2 {
        fill: #fff;
      }

      .cls-3 {
        fill: #af52de;
      }
    </style>
  </defs>
  <g id="Capa_1-2" data-name="Capa 1">
    <g>
      <path class="cls-1" d="M118.83,69.05v18.05c0,5.24-2.74,7.35-7.19,7.35s-7.35-2.5-7.35-7.74v-46.65c0-5.16,2.81-7.66,7.35-7.66,4.3,0,7.11,2.5,7.11,7.74v3.13c1.09-6.41,5.55-11.02,12.5-11.02,10.63,0,15.55,9.53,15.55,21.88s-6.17,21.96-17.04,21.96c-4.53,0-9.53-2.5-10.94-7.03ZM125.08,64.68c4.85,0,6.72-4.77,6.72-10.94,0-5.7-1.72-10.16-6.49-10.16-3.36,0-5.55,1.72-6.49,3.36v13.05c.23,3.75,3.59,4.69,6.25,4.69Z"/>
      <path class="cls-1" d="M186.19,76.09c-5.16,0-9.38-3.28-9.46-9.22-1.17,5.31-4.92,9.22-11.33,9.22-7.81,0-14.14-4.85-14.14-13.21s6.25-12.89,14.22-12.89c6.02,0,9.46,2.42,10.86,4.22l-.08-5.71c0-2.81-1.8-5.16-5.63-5.24-2.58,0-4.06,1.02-5.47,1.8-1.56.86-3.28,2.19-5.94,2.19-2.81,0-5.39-2.34-5.39-6.25,0-2.73,1.8-4.53,3.67-5.78,3.2-2.11,8.28-2.97,12.19-2.97,16.65,0,20.01,7.58,20.01,17.82v10.39c0,2.97.78,4.06,1.72,4.85,1.09,1.02,2.27,1.88,2.27,5,0,4.45-3.59,5.78-7.5,5.78ZM176.34,63.04v-2.89c-1.25-.94-3.36-2.27-5.7-2.27-3.28,0-5.63,1.88-5.63,5s2.42,4.69,5.08,4.69c2.97,0,5.24-1.8,6.25-4.53Z"/>
      <path class="cls-1" d="M197.98,68.43v-28.29c0-5.63,2.81-7.58,7.42-7.74,3.2,0,6.72,1.17,6.72,5.39v7.27c1.02-10.63,7.5-12.66,10.55-12.66,3.36,0,6.96,1.17,6.96,7.11,0,4.92-2.42,9.38-6.33,9.38-1.95,0-3.2-.86-4.45-1.64-1.17-.86-2.34-1.48-3.67-1.17-2.03.47-2.34,3.2-2.34,7.58v14.93c0,5-2.81,7.5-7.42,7.5s-7.42-2.58-7.42-7.66Z"/>
      <path class="cls-1" d="M257.45,71.09c-3.13-4.06-7.03-9.93-9.3-12.97v10.71c0,5.31-2.81,7.27-6.88,7.27-4.53,0-7.35-2.58-7.35-7.66V20.52c0-5.08,2.81-7.66,7.35-7.66,4.06,0,6.88,2.58,6.88,7.66v28.84c2.73-3.2,6.41-8.28,9.14-12.03,2.58-3.67,4.77-4.92,7.97-4.92,3.75,0,6.1,2.42,6.49,5.47.23,1.8-.16,5.39-4.3,8.67-3.52,2.73-7.42,5.08-10.94,7.11,3.44,2.42,8.75,5.55,12.19,8.13,2.73,1.95,4.3,4.14,4.3,6.96.08,4.38-2.97,7.5-7.11,7.42-2.74-.08-5.86-1.64-8.44-5.08Z"/>
    </g>
    <path class="cls-1" d="M0,81.19c0-7.58,4.6-11.56,11.06-17.16,4.24-3.7,8.35-7.6,12.52-11.45,2.57-2.37,2.66-6.39.2-8.88-3.95-3.98-8.49-8.61-12.98-12.74C4.35,25.49.12,20.89.12,13.3.12,5.1,6.59,0,13.43,0c8.08.12,11.94,5.72,15.67,12.81,2.2,4,4.24,7.84,6.05,11.33,2.3,4.42,8.6,4.45,10.94.05,1.86-3.5,3.93-7.36,6.14-11.38C55.95,5.72,59.8.12,67.76,0c6.84,0,13.3,5.1,13.3,13.3,0,7.61-4.12,12.19-10.44,17.57-.16.14-.32.28-.47.43-1.29,1.28-7.88,7.82-12.48,12.39-2.5,2.48-2.42,6.54.16,8.92l11.55,10.66c6.84,6.09,11.69,10.44,11.69,17.9,0,8.45-6.71,13.3-13.18,13.3-8.45-.12-12.06-5.72-16.54-13.8l-5.16-9.97c-2.26-4.37-8.49-4.45-10.85-.13-1.87,3.42-3.9,7-5.87,10.47-4.35,7.71-7.96,13.3-16.16,13.43-6.71,0-13.18-5.1-13.3-13.3Z"/>
    <g>
      <path class="cls-3" d="M103.32,19.82V5.19c0-1.59.9-2.87,2.95-2.87h7.79c1.45,0,2.16,1.01,2.16,2.32,0,1.2-.71,2.21-2.16,2.21h-4.7c-.77,0-.88.19-.88,1.07v2.41h4.07c1.59,0,2.19.93,2.19,2.11s-.57,2.19-2.19,2.19h-4.07v3.47h6.15c1.61,0,2.3.98,2.3,2.27s-.71,2.32-2.3,2.32h-8.37c-2.02,0-2.95-1.29-2.95-2.87Z"/>
      <path class="cls-3" d="M118.42,19.92c0-1.67,1.01-2.54,2.43-3.77,1.29-1.12,2.52-2.32,3.8-3.47-1.04-1.01-2.46-2.52-3.86-3.8-1.42-1.2-2.35-2.21-2.35-3.88,0-1.8,1.42-2.93,2.93-2.93,1.78.03,2.63,1.26,3.45,2.82,1.07,1.94,1.97,3.72,2.52,4.84.57-1.12,1.5-2.9,2.57-4.84.82-1.56,1.67-2.79,3.42-2.82,1.5,0,2.93,1.12,2.93,2.93,0,1.7-.93,2.71-2.35,3.91l-3.8,3.77,3.58,3.31c1.5,1.34,2.57,2.3,2.57,3.94,0,1.86-1.48,2.93-2.9,2.93-1.86-.03-2.65-1.26-3.64-3.04-.82-1.59-1.78-3.2-2.38-4.46-.57,1.26-1.53,2.95-2.43,4.54-.96,1.7-1.75,2.93-3.56,2.95-1.48,0-2.9-1.12-2.93-2.93Z"/>
      <path class="cls-3" d="M142.81,20.09V7.21h-3.14c-1.86,0-2.46-1.39-2.46-2.46s.6-2.43,2.46-2.43h11.57c1.86,0,2.46,1.37,2.46,2.43s-.6,2.46-2.46,2.46h-3.09v12.88c0,1.53-.66,2.76-2.68,2.76s-2.65-1.23-2.65-2.76Z"/>
      <path class="cls-3" d="M155.14,20.14V5.4c0-1.72.68-3.09,2.98-3.09h4.76c5.5,0,7.74,2.16,7.74,6.29,0,3.2-1.56,5.31-4.29,6.07.11.52.38,1.01.68,1.45.6.77,1.42,1.45,2.41,1.8.98.36,1.86.88,1.86,2.35,0,1.7-1.23,2.57-2.73,2.57-1.91.03-3.36-.98-4.48-2.6-.93-1.26-1.59-3.09-1.94-4.98h-1.64v4.87c0,1.48-.63,2.68-2.65,2.68s-2.68-1.2-2.68-2.68ZM165.45,9.1c0-1.67-.93-2.41-2.6-2.43h-1.61c-.6,0-.77.19-.77.74v4.24h2.38c1.39,0,2.6-.63,2.6-2.54Z"/>
      <path class="cls-3" d="M173.63,19.82V5.19c0-1.59.9-2.87,2.95-2.87h7.79c1.45,0,2.16,1.01,2.16,2.32,0,1.2-.71,2.21-2.16,2.21h-4.7c-.77,0-.88.19-.88,1.07v2.41h4.07c1.59,0,2.19.93,2.19,2.11s-.57,2.19-2.19,2.19h-4.07v3.47h6.15c1.61,0,2.3.98,2.3,2.27s-.71,2.32-2.3,2.32h-8.37c-2.02,0-2.95-1.29-2.95-2.87Z"/>
      <path class="cls-3" d="M189.29,20.14V6.17c0-2.57,1.23-3.97,3.99-3.97,2.6,0,3.42.93,4.07,3.09l.88,2.35c1.09,3.53,1.45,5.11,1.7,7.52.25-2.41.6-3.97,1.72-7.52l.85-2.35c.71-2.16,1.48-3.09,4.13-3.09s3.94,1.39,3.94,3.97v13.97c0,1.37-.57,2.68-2.57,2.68s-2.57-1.31-2.57-2.68l.03-3.66c.03-2.65.27-5.77.38-9.43l-3.04,9.95c-.6,1.72-.96,2.6-2.87,2.6s-2.27-.85-2.87-2.6l-3.04-9.95c.16,3.66.38,6.78.38,9.43l.03,3.66c0,1.37-.57,2.68-2.57,2.68s-2.57-1.31-2.57-2.68Z"/>
      <path class="cls-3" d="M214.18,19.82V5.19c0-1.59.9-2.87,2.95-2.87h7.79c1.45,0,2.16,1.01,2.16,2.32,0,1.2-.71,2.21-2.16,2.21h-4.7c-.77,0-.88.19-.88,1.07v2.41h4.07c1.59,0,2.19.93,2.19,2.11s-.57,2.19-2.19,2.19h-4.07v3.47h6.15c1.61,0,2.3.98,2.3,2.27s-.71,2.32-2.3,2.32h-8.37c-2.02,0-2.95-1.29-2.95-2.87Z"/>
    </g>
    <path class="cls-2" d="M14.53,69.02c0-4.87,2.95-7.42,7.1-11.01,2.18-1.91,4.32-3.89,6.46-5.88,2.51-2.33,2.59-6.27.18-8.7-2.14-2.16-4.48-4.5-6.79-6.63-4.15-3.51-6.86-6.46-6.86-11.33,0-5.26,4.15-8.53,8.53-8.53,5.18.08,7.66,3.67,10.05,8.22.72,1.31,1.42,2.6,2.08,3.85,2.27,4.26,8.36,4.28,10.65.03.67-1.25,1.38-2.55,2.11-3.87,2.39-4.55,4.87-8.14,9.97-8.22,4.39,0,8.53,3.27,8.53,8.53,0,4.88-2.64,7.81-6.69,11.26-.11.1-.23.2-.33.3l-6.45,6.4c-2.44,2.42-2.37,6.4.16,8.73l5.81,5.37c4.39,3.91,7.5,6.7,7.5,11.49,0,5.42-4.31,8.53-8.45,8.53-5.42-.08-7.74-3.67-10.61-8.85l-1.53-2.96c-2.2-4.25-8.24-4.36-10.59-.19-.64,1.13-1.28,2.27-1.92,3.39-2.79,4.95-5.1,8.53-10.37,8.61-4.31,0-8.45-3.27-8.53-8.53Z"/>
    <path class="cls-3" d="M24.57,60.62c0-2.99,1.81-4.55,4.36-6.76,1.34-1.17,2.65-2.39,3.96-3.61,1.54-1.43,1.59-3.85.11-5.34-1.32-1.33-2.75-2.76-4.17-4.07-2.55-2.15-4.21-3.97-4.21-6.95,0-3.23,2.55-5.24,5.24-5.24,3.18.05,4.7,2.25,6.17,5.04.44.81.87,1.6,1.28,2.36,1.39,2.62,5.13,2.63,6.54.02.41-.77.85-1.57,1.29-2.38,1.47-2.79,2.99-5,6.12-5.04,2.69,0,5.24,2.01,5.24,5.24,0,2.99-1.62,4.8-4.11,6.91-.07.06-.14.12-.2.19l-3.96,3.93c-1.5,1.49-1.46,3.93.1,5.36l3.57,3.3c2.69,2.4,4.6,4.11,4.6,7.05,0,3.33-2.64,5.24-5.19,5.24-3.33-.05-4.75-2.25-6.51-5.44l-.94-1.82c-1.35-2.61-5.06-2.68-6.5-.12-.39.7-.79,1.39-1.18,2.08-1.71,3.04-3.13,5.24-6.37,5.29-2.64,0-5.19-2.01-5.24-5.24Z"/>
  </g>
</svg>